<?xml version="1.0" encoding="iso-8859-1"?>
<!-- Generator: Adobe Illustrator 19.0.0, SVG Export Plug-In . SVG Version: 6.00 Build 0)  -->
<svg version="1.1" id="Capa_1" xmlns="http://www.w3.org/2000/svg" xmlns:xlink="http://www.w3.org/1999/xlink" x="0px" y="0px"
	 viewBox="0 0 512 512" style="enable-background:new 0 0 512 512;" xml:space="preserve">
<g>
	<g>
		<path d="M437.02,74.981C388.667,26.629,324.38,0,256,0S123.333,26.629,74.98,74.981C26.629,123.333,0,187.62,0,256
			s26.629,132.667,74.98,181.019C123.333,485.371,187.62,512,256,512s132.667-26.629,181.02-74.981
			C485.371,388.667,512,324.38,512,256S485.371,123.333,437.02,74.981z M256,482C131.383,482,30,380.617,30,256
			c0-83.693,45.73-156.906,113.515-195.966C128.988,81.616,120.5,107.585,120.5,135.5c0,74.715,60.785,135.5,135.5,135.5
			c58.173,0,105.5,47.327,105.5,105.5C361.5,434.673,314.173,482,256,482z M368.485,451.966
			c14.527-21.582,23.015-47.551,23.015-75.466c0-74.715-60.785-135.5-135.5-135.5c-58.173,0-105.5-47.327-105.5-105.5
			C150.5,77.327,197.827,30,256,30c124.617,0,226,101.383,226,226C482,339.693,436.27,412.906,368.485,451.966z"/>
	</g>
</g>
<g>
	<g>
		<path d="M256,105.5c-16.542,0-30,13.458-30,30s13.458,30,30,30s30-13.458,30-30S272.542,105.5,256,105.5z"/>
	</g>
</g>
<g>
	<g>
		<path d="M256,346.5c-16.542,0-30,13.458-30,30s13.458,30,30,30s30-13.458,30-30S272.542,346.5,256,346.5z"/>
	</g>
</g>
<g>
</g>
<g>
</g>
<g>
</g>
<g>
</g>
<g>
</g>
<g>
</g>
<g>
</g>
<g>
</g>
<g>
</g>
<g>
</g>
<g>
</g>
<g>
</g>
<g>
</g>
<g>
</g>
<g>
</g>
</svg>
